<svg xmlns="http://www.w3.org/2000/svg" viewBox="0 0 675.31 109.55" class="h-full w-auto svg-toggle">

    <path
        d="M400.41 41.94h-4.58v16h2.45v-5.68h2.28a6.17 6.17 0 0 0 4.21-1.42 4.69 4.69 0 0 0 1.62-3.7 4.8 4.8 0 0 0-1.61-3.74 6.29 6.29 0 0 0-4.37-1.46Zm2.6 7.45a3.73 3.73 0 0 1-2.64.86h-2.09V44h2a3.82 3.82 0 0 1 2.68.85 3 3 0 0 1 .93 2.33 2.94 2.94 0 0 1-.89 2.21ZM424.45 48.82h-7.19v-6.88h-2.44v16h2.44v-7h7.19v7h2.45v-16h-2.45v6.88zM443 41.63a6.76 6.76 0 0 0-5.34 2.26 8.67 8.67 0 0 0-2 6 8.71 8.71 0 0 0 2 6 7.47 7.47 0 0 0 10.71 0 8.75 8.75 0 0 0 2-6 8.75 8.75 0 0 0-2-6 6.8 6.8 0 0 0-5.37-2.26Zm3.54 12.63a4.62 4.62 0 0 1-7 0 6.73 6.73 0 0 1-1.31-4.36 6.81 6.81 0 0 1 1.27-4.36 4.21 4.21 0 0 1 3.5-1.6 4.28 4.28 0 0 1 3.53 1.59 6.87 6.87 0 0 1 1.27 4.37 6.91 6.91 0 0 1-1.25 4.36ZM457.92 43.98h4.17v13.96h2.45V43.98h4.2v-2.04h-10.82v2.04zM483.62 41.63a6.76 6.76 0 0 0-5.34 2.26 8.67 8.67 0 0 0-2 6 8.67 8.67 0 0 0 2 6 7.46 7.46 0 0 0 10.7 0 8.75 8.75 0 0 0 2-6 8.71 8.71 0 0 0-2-6 6.77 6.77 0 0 0-5.36-2.26Zm3.53 12.63a4.21 4.21 0 0 1-3.51 1.59 4.26 4.26 0 0 1-3.49-1.62 6.72 6.72 0 0 1-1.3-4.36 6.81 6.81 0 0 1 1.27-4.36 4.2 4.2 0 0 1 3.5-1.6 4.25 4.25 0 0 1 3.52 1.59 6.81 6.81 0 0 1 1.27 4.37 6.91 6.91 0 0 1-1.26 4.39ZM507 50.91h3.25v4.42a7.3 7.3 0 0 1-2.71.52 5.7 5.7 0 0 1-4.28-1.59 5.94 5.94 0 0 1-1.56-4.35 6 6 0 0 1 1.58-4.31 5.45 5.45 0 0 1 4.09-1.6 8.43 8.43 0 0 1 4.56 1.28v-2.56a9.3 9.3 0 0 0-4.65-1.06 7.88 7.88 0 0 0-8.19 8.25 7.93 7.93 0 0 0 2.29 6 8.35 8.35 0 0 0 6 2.21 8.55 8.55 0 0 0 5.17-1.5V48.8H507ZM531.18 49.78a4.91 4.91 0 0 0 .85-2.86 4.68 4.68 0 0 0-1.49-3.64 6.19 6.19 0 0 0-4.25-1.34h-4.46v16h2.44v-6.08h2.11l3.75 6.08h2.92l-4.17-6.46a4.63 4.63 0 0 0 2.3-1.7Zm-4.7 0h-2.21V44h2.09c2.14 0 3.2 1 3.2 2.92a2.91 2.91 0 0 1-.78 2.13 3.09 3.09 0 0 1-2.3.77ZM545.77 41.94l-5.53 16h2.59l1.28-3.94h6.46l1.25 3.92h2.61l-5.46-16Zm4.13 10h-5.13l.27-.81c1.37-4.17 2.15-6.63 2.32-7.38l.12.45c.08.3.31 1.07.69 2.29s.87 2.78 1.47 4.64ZM567.42 41.94h-4.58v16h2.44v-5.68h2.28a6.15 6.15 0 0 0 4.21-1.42 4.7 4.7 0 0 0 1.63-3.7 4.8 4.8 0 0 0-1.62-3.74 6.26 6.26 0 0 0-4.36-1.46Zm2.58 7.45a3.73 3.73 0 0 1-2.64.86h-2.09V44h2a3.82 3.82 0 0 1 2.68.85 3 3 0 0 1 .93 2.33 2.94 2.94 0 0 1-.88 2.21ZM591.46 48.82h-7.2v-6.88h-2.44v16h2.44v-7h7.2v7h2.44v-16h-2.44v6.88zM612.67 41.94l-1.16 2.35q-2.53 5-2.75 5.7l-.15-.31c-.08-.22-.34-.81-.78-1.76s-1-2.16-1.76-3.63l-1.13-2.35h-2.8l5.41 10v6H610V52l5.48-10ZM185.55 29.89a2.61 2.61 0 0 0 1.37-2.76 1.59 1.59 0 0 0-1-1.3 2 2 0 0 0-2.52 1.78 1.79 1.79 0 0 0 0 1.29c.41 1.1 1.25 1.48 2.15.99ZM144.86 37.44c1.42-4.62 3-9.19 4.42-13.8 1.29-4.09 2.93-8.06 4.31-12.11a1.23 1.23 0 0 0 0-1.06c-.1-.14-.2-.29-.31-.42a1.43 1.43 0 0 0-2.16.38c-.22.62-.49 1.22-.72 1.83-1 2.63-1.91 5.27-3 7.88-.79 2-1.4 4-2 6q-.84 2.73-1.66 5.47c-.43 1.43-.85 2.86-1.27 4.29s-.78 2.69-1.18 4c-.35 1.17-.73 2.34-1.08 3.52-.4 1.37-.77 2.76-1.17 4.14-.46 1.62-1 3.23-1.41 4.87-.74 3-1.51 6.07-2.07 9.15-.39 2.13-.81 4.25-1.08 6.39a1.18 1.18 0 0 0 0 .59 1.33 1.33 0 0 0 .86 1.21 1 1 0 0 0 .58 0 1.62 1.62 0 0 0 1.22-1.31c.36-1.77.56-3.56.94-5.32.66-3.14 1.46-6.26 2.18-9.4.56-2.46 1.38-4.85 2.06-7.28.84-2.97 1.62-6.02 2.54-9.02ZM111.24 36.42a.59.59 0 0 0 .59.17 9.47 9.47 0 0 0 1.45-.48 1.51 1.51 0 0 0 .87-1.62c0-.19-.07-.54-.13-.89a1.68 1.68 0 0 0-1.93-1.23 2.51 2.51 0 0 0-1.68 2 2 2 0 0 0 .83 2.05ZM213 38.64a1.93 1.93 0 0 0-1.54.76c-.37.45-.74.89-1.12 1.32-.74.82-1.5 1.63-2.22 2.47-.87 1-1.66 2.08-2.58 3-1.47 1.54-3 3-4.52 4.5a3.41 3.41 0 0 1-1.11.77.64.64 0 0 1-1-.53 2.53 2.53 0 0 1 0-.82 52.41 52.41 0 0 1 1.67-5.34 38.51 38.51 0 0 0 1.57-4.53 1.49 1.49 0 0 0-.82-1.74 1.65 1.65 0 0 0-1.72.58 36.75 36.75 0 0 0-1.79 4.53.53.53 0 0 1-.51.43 84.37 84.37 0 0 0-9.53 2.34c-2 .6-4.05 1.29-6.1 1.84-.36.1-.52 0-.45-.36s.09-.62.15-.92c.49-2.4 1.23-4.73 1.81-7.11a1.36 1.36 0 0 0-.72-1.5 1.28 1.28 0 0 0-1.51.23 5.06 5.06 0 0 0-1.15 2.56c-.68 2.34-1.34 4.68-1.85 7.07-.24 1.12-.6 2.08-1.85 2.4a2.51 2.51 0 0 0-.56.22c-1.92 1-3.86 1.91-5.76 2.92s-3.88 2.16-5.75 3.36q-2.28 1.47-4.5 3.07a60.16 60.16 0 0 0-5.54 4.55c-.74.68-1.47 1.37-2.15 2.12s-1.61 1.79-2.35 2.73a35 35 0 0 0-5.67 10.28 31.2 31.2 0 0 0-1.77 7.58c-.09.2 0 .43-.09.63a8.74 8.74 0 0 0-.09 1.21c.16 1 .1 2.06.33 3.08a9.73 9.73 0 0 0 3.42 5.9 7.51 7.51 0 0 0 4 1.56 12.61 12.61 0 0 0 6-1.11 17.4 17.4 0 0 0 7-5.47 51.77 51.77 0 0 0 4.77-7.76 133.38 133.38 0 0 0 6.07-13.86 128.56 128.56 0 0 0 6.24-18.5 1.67 1.67 0 0 1 1-1.21 45.34 45.34 0 0 1 4.74-1.69c2.44-.84 4.94-1.48 7.43-2.15 1.07-.28 2.15-.54 3.22-.8.12 0 .28-.11.39 0s0 .24-.07.37a11.06 11.06 0 0 0-.26 1.14 12.31 12.31 0 0 0-.09 3 3 3 0 0 0 2.21 3 1.58 1.58 0 0 0 1.17 0 8.45 8.45 0 0 0 3.18-1.76c1.36-1.16 2.55-2.5 3.85-3.73.93-.88 1.71-1.93 2.7-2.77.19.14.11.34.14.52-.17 1.48-.33 3-.5 4.45-.19.23-.08.5-.09.75a1.17 1.17 0 0 0 .05-.2.65.65 0 0 1-.05.2v3a.73.73 0 0 1 .05.2 1.46 1.46 0 0 0-.05-.2c0 .25-.09.51.09.73.05.44.13.87.15 1.31 0 .62.49.85 1 1a1.18 1.18 0 0 0 1.23-.32c.22-.2.24-.49.41-.7a.44.44 0 0 0 0-.58v-.8a4.59 4.59 0 0 0-.09-1.57v-.24a4.59 4.59 0 0 0 .09-1.57 18.84 18.84 0 0 1 .44-3.58c.5-2.61 1.27-5.16 2-7.72a2.5 2.5 0 0 0 .26-1.35 1.63 1.63 0 0 0-1.31-1.19Zm-37.25 18.22a200 200 0 0 1-11.35 27.87 31 31 0 0 1-4.6 7.36 14.64 14.64 0 0 1-5.72 4.15 8.7 8.7 0 0 1-4.59.46 5 5 0 0 1-3.85-3.45 12 12 0 0 1-.52-4.54c0-5.69 2.35-10.58 5.32-15.23A40.45 40.45 0 0 1 162.08 62a101.71 101.71 0 0 1 13.15-7.69c.43-.21.83-.44 1.35-.72a18.73 18.73 0 0 1-.83 3.27ZM253.12 42.08a16.76 16.76 0 0 1 6.88-3.14c.76-.15 1.5-.35 2.23-.56a1.2 1.2 0 0 0 .8-1.06c.08-.43-.23-.72-.57-1a3 3 0 0 0-2.3-.42c-.58.11-1.15.29-1.72.45A22.08 22.08 0 0 0 250 41a33 33 0 0 0-3.41 3.18s-.09 0-.14 0a4.86 4.86 0 0 1 0-1.08c.73-3 1.46-5.94 2.31-8.89.47-1.61 1.17-3.14 1.6-4.76a1.7 1.7 0 0 0 0-.71 1.31 1.31 0 0 0-2.35-.3 6 6 0 0 0-1 1.69q-.9 2.73-1.66 5.5c-.81 3-1.61 6-2.26 9a1 1 0 0 1-.44.65c-2.75 1.75-5.48 3.53-8.22 5.29-2.21 1.43-4.43 2.83-6.74 4.08a13.18 13.18 0 0 1-4.12 1.71h-1.23a1 1 0 0 1-.66-.17 2.45 2.45 0 0 1-1.07-2.56c.18-.23.07-.49.08-.74a2.57 2.57 0 0 1 1.84-2.77 17 17 0 0 0 7.95-6 8.77 8.77 0 0 0 2.16-4.12c.24-2.16-.81-3.58-2.94-3.74a.53.53 0 0 1-.17 0h.17c-.22 0-.44-.09-.64.08a7.64 7.64 0 0 0-4.58 2.78 32 32 0 0 0-3.84 5.61c-1.25 2.41-2.51 4.81-2.72 7.59-.18.23-.07.5-.09.75a.87.87 0 0 0 0-.22.44.44 0 0 1 0 .22v1.21c0 .22-.08.45.09.64.3 2.55 1.8 4.1 4.16 4.28a1.93 1.93 0 0 0 1.3 0 9.6 9.6 0 0 0 1.88-.33 30.54 30.54 0 0 0 5-2.38c3-1.75 5.84-3.66 8.75-5.5l2.64-1.68c.13-.08.27-.24.42-.16s0 .26 0 .4a11.25 11.25 0 0 1-.34 1.61l-.78 3.53a1.49 1.49 0 0 0 0 1.17 1.31 1.31 0 0 0 2.54.5 3.3 3.3 0 0 0 .43-1.07 14.43 14.43 0 0 1 1.4-3.83 25.92 25.92 0 0 1 7.79-9.38Zm-25.94-1.82a3.51 3.51 0 0 1 1.82-1.19c.84-.19 1.21.2 1 1a8.28 8.28 0 0 1-2 3.48 12.27 12.27 0 0 1-4.79 3.61 1.42 1.42 0 0 1-.78.16 31.21 31.21 0 0 1 4.75-7.06ZM356.2 44h-.08a3.44 3.44 0 0 0-1 0l-.36.09-.78.17-1.79.34c-1.16.22-2.32.43-3.48.67a2.58 2.58 0 0 1-1.55 0 8.13 8.13 0 0 0-2.18-.45 8.53 8.53 0 0 0-1.43 0h-1a.81.81 0 0 0-.31 0h-.55a1.06 1.06 0 0 1 0-.53 1.73 1.73 0 0 1 .27-.71l.18-.32a13.72 13.72 0 0 1 4.28-5.54 4.13 4.13 0 0 1 2-.92 1.64 1.64 0 0 1 .66 0c.64 0 1 .48 1.35 1.06l.1.16a5.38 5.38 0 0 0 .75 1 1.32 1.32 0 0 0 1.27.38 1.19 1.19 0 0 0 .82-.85 1 1 0 0 0 0-.62l-.26-.47a6.5 6.5 0 0 0-1.67-2.2 4.13 4.13 0 0 0-3.07-1 7.57 7.57 0 0 0-4.37 2.01 15.78 15.78 0 0 0-1.78 1.93c-.4.53-.82 1.15-1.23 1.79v-.08a20.21 20.21 0 0 1-3.49 4.64l-.6.56a11.72 11.72 0 0 1-3.16 2.2c-1.76.81-2.77.38-3.94-.81a5.65 5.65 0 0 1-1-1.87 3.9 3.9 0 0 0-2.91-2.51.45.45 0 0 0-.59 0c-2.25.33-3.78 1.77-5.25 3.33-.48.51-1 1-1.61 1.56.14-.64.25-1.13.35-1.61a61.23 61.23 0 0 1 1.88-7.52 39.73 39.73 0 0 0 1.6-4.52 1.18 1.18 0 0 0-.13-1 1.3 1.3 0 0 0-2.26.06 7.82 7.82 0 0 0-1.07 2.19c-.56 1.56-1.12 3.11-1.55 4.71a50.17 50.17 0 0 0-1.19 5.13.85.85 0 0 1-.36.71c-2.84 1.81-5.67 3.65-8.51 5.46-2.26 1.45-4.52 2.88-6.87 4.16a13.23 13.23 0 0 1-4.13 1.71H295a1 1 0 0 1-.65-.17 2.44 2.44 0 0 1-1.07-2.56c.18-.23.07-.49.08-.74a2.59 2.59 0 0 1 1.85-2.77 16.87 16.87 0 0 0 7.94-6A8.7 8.7 0 0 0 305.2 40c.23-2.16-.81-3.58-2.95-3.74-.2.1-.43 0-.63.08a6.82 6.82 0 0 0-3.92 2.06 25.56 25.56 0 0 0-3.7 5 4.49 4.49 0 0 1-1.64 1.57c-3.7 2.27-7.57 4.22-11.37 6.32-1 .54-2 1.05-3 1.58-.14-.24 0-.39 0-.56.18-2.34.75-4.62 1.1-6.94.38-2.59.9-5.15 1.4-7.72.31-1.56.49-3.14.84-4.69.24-1.09.74-2.12 1-3.22.32-1.59.48-1.81-.74-2.45a1.94 1.94 0 0 0-.83 0 1.26 1.26 0 0 0-.82.53 38.83 38.83 0 0 0-2 4.51 42.73 42.73 0 0 1-2.48 5.31.49.49 0 0 1-.76.22c-.71-.34-1.46-.59-2.2-.88-.21-.08-.44 0-.65-.08-.24.1-.51 0-.76.08a7 7 0 0 0-4.43 3 17.59 17.59 0 0 0-3.52 8.62c-.17.2-.08.43-.09.64v2.19a2.81 2.81 0 0 0 3.8 2.31 7.53 7.53 0 0 0 3.46-2.87c1.55-2.09 3.07-4.21 4.62-6.3.13-.17.19-.55.52-.45a.76.76 0 0 1 .51.65 2.69 2.69 0 0 1 .14 1c-.3 1.59-.56 3.18-.77 4.79a24.52 24.52 0 0 1-1 4.4 1 1 0 0 1-.52.63c-1 .58-2.06 1.12-3.05 1.74a75.51 75.51 0 0 0-9.29 6.8c-1.73 1.49-3.42 3-5.08 4.61a65.93 65.93 0 0 0-7.39 8.77 18.56 18.56 0 0 0-3.5 8.73 11.13 11.13 0 0 0 0 2 6.78 6.78 0 0 0 .51 1.89 4.56 4.56 0 0 0 2.67 2.87 9.27 9.27 0 0 0 2.76.45 1.7 1.7 0 0 0 .71 0 10.8 10.8 0 0 0 3.16-.85 21.39 21.39 0 0 0 7.17-4 29.45 29.45 0 0 0 5.26-6.26 63.33 63.33 0 0 0 4.55-8.72 60.07 60.07 0 0 0 3.07-8.62c.66-2.48.94-5.05 1.76-7.5.11-.31.11-.64.47-.87 4.41-2.74 8.85-5.44 13.4-8 .09 0 .17-.21.29-.1s.05.22 0 .34a10.76 10.76 0 0 0-.81 3.41c-.18.23-.07.5-.08.75 0-.07 0-.15.05-.22a.87.87 0 0 1-.05.22v1.21c0 .22-.09.45.09.64.29 2.55 1.8 4.1 4.16 4.28a1.93 1.93 0 0 0 1.3 0 10.56 10.56 0 0 0 1.88-.33 29.06 29.06 0 0 0 4.81-2.3c3.91-2.34 7.72-4.83 11.56-7.28.36-.22.66-.58 1.14-.62a16.94 16.94 0 0 0-.09 2.12 1.65 1.65 0 0 0 .26.92c.31.43.62 1 1.22.89a3.14 3.14 0 0 0 1.93-1.11 31 31 0 0 1 4.17-4.91 5.22 5.22 0 0 1 2.06-1.37h.65a.85.85 0 0 1 .49.41c.27.54.61 1 .9 1.58a5.76 5.76 0 0 0 4.41 3.23c.19.17.42.08.63.08h-.17.17a6.53 6.53 0 0 0 2.38-.45 12.61 12.61 0 0 0 5.34-3.72 2.3 2.3 0 0 0 1.56.69h2.07a2.15 2.15 0 0 0 .8 0 .54.54 0 0 1 .33 0 .68.68 0 0 1-.17.12 15.59 15.59 0 0 0-3.07 2.26 19.78 19.78 0 0 0-2.34 2.63 10.25 10.25 0 0 0-2.29 5.34 1.14 1.14 0 0 0 0 .55 3.32 3.32 0 0 0 1.5 2.64 3.77 3.77 0 0 0 1.75.55 4.58 4.58 0 0 0 .53 0 3.86 3.86 0 0 0 .58 0l.45-.08a6.4 6.4 0 0 0 1.48-.4 12.24 12.24 0 0 0 4.87-3.85 11.73 11.73 0 0 0 2.27-5.67.78.78 0 0 0 0-.36.41.41 0 0 1 0-.12v-1.37a.66.66 0 0 0 0-.3 4.11 4.11 0 0 1-.11-.55 4.25 4.25 0 0 0-.12-.6.31.31 0 0 1 0-.21.52.52 0 0 1 .28-.13c.38-.08.75-.15 1.13-.2a15 15 0 0 0 1.91-.37l1-.23.61-.11a7.34 7.34 0 0 0 1.69-.42 1.05 1.05 0 0 0 .35-1.83 1.7 1.7 0 0 0-.54-.28Zm-56.48-3.71a3.66 3.66 0 0 1 1.72-1.18c.89-.24 1.29.18 1.06 1.07a8 8 0 0 1-1.77 3.21 12.21 12.21 0 0 1-4.94 3.79 1.32 1.32 0 0 1-.79.17 31.66 31.66 0 0 1 4.72-7.09Zm-26.26 1.25a34.44 34.44 0 0 1-6.27 8.28 4.55 4.55 0 0 1-.58.49c-.18.13-.35.39-.61.22s-.25-.43-.22-.81a14.35 14.35 0 0 1 3.64-8.61 5.58 5.58 0 0 1 1.45-1.11 1.93 1.93 0 0 1 2.32.33.86.86 0 0 1 .27 1.18ZM272.75 64a63.06 63.06 0 0 1-6.95 16.26 26.55 26.55 0 0 1-6.9 7.54 19 19 0 0 1-6.53 2.87 3.69 3.69 0 0 1-2.38-.21 2.6 2.6 0 0 1-1.51-2.52 13.08 13.08 0 0 1 2.4-8.21 51.29 51.29 0 0 1 6.9-8.37 82.4 82.4 0 0 1 12.78-10.64 20.52 20.52 0 0 1 3.15-1.81 29.94 29.94 0 0 1-.96 5.09Zm74.89-14.21a10.69 10.69 0 0 1-1.73 5.21 8.85 8.85 0 0 1-5.15 3.67 1.47 1.47 0 0 1-1-.1 1 1 0 0 1-.67-1 5.83 5.83 0 0 1 1.17-3.3 15.91 15.91 0 0 1 6.85-5.72.27.27 0 0 1 .12 0s.07 0 .13.14a1.84 1.84 0 0 1 .28 1.1Z" />
    <path
        d="M142.47 11.53a3.14 3.14 0 0 0 0-1.06l-.22-.27a1.28 1.28 0 0 0-2.19.28c-1.53 4-3.17 8-4.54 12-2.27 6.75-4.21 13.61-6.19 20.45a3.65 3.65 0 0 1-1.39 2.09c-5.21 4-10.68 7.51-16.23 10.94a6.76 6.76 0 0 1-1.58.76c-1 .3-1.55-.06-1.7-1.09a3.08 3.08 0 0 1 0-.53 21.06 21.06 0 0 1 .63-4.6c.55-2.28 1.37-4.5 1.83-6.8a1.36 1.36 0 0 0-.73-1.61.94.94 0 0 0-1.4.37 14.31 14.31 0 0 0-.67 1.5 1 1 0 0 1-.49.55c-4.76 2.85-9.7 5.4-14.57 8.05a1.33 1.33 0 0 1-.57.25c.21-2.32.72-4.58 1.09-6.87.53-3.17 1.09-6.34 1.7-9.5a34.37 34.37 0 0 1 1.46-6.23 5.38 5.38 0 0 0 .29-1.75 1.15 1.15 0 0 0-.92-1.2 1.5 1.5 0 0 0-1.66.56c-.44.83-.85 1.67-1.22 2.54a64.6 64.6 0 0 1-3.06 6.86c-.45.79-.45.78-1.28.44-.34-.14-.69-.27-1-.42a4.08 4.08 0 0 0-3.53.09 8 8 0 0 0-3.1 2.56 17.62 17.62 0 0 0-3.72 10.88 3 3 0 0 0 4.38 2.7 7.5 7.5 0 0 0 2.5-2.11c1.76-2.37 3.52-4.74 5.25-7.13.29-.41.44-.31.65 0a2.25 2.25 0 0 1 .33 1.64c-.17.9-.31 1.81-.44 2.73a33.32 33.32 0 0 1-1.31 6.32 1 1 0 0 1-.5.6 76 76 0 0 0-13.89 9.93 69.43 69.43 0 0 0-9.57 10.12 24.61 24.61 0 0 0-4.51 8.46c-.2.76-.35 1.53-.52 2.3v.36a2.11 2.11 0 0 1 0 1.06v.47c.19.61.36 1.23.59 1.83a4.53 4.53 0 0 0 2.74 3 9.59 9.59 0 0 0 2.71.43 1.65 1.65 0 0 0 .7 0 9 9 0 0 0 2.51-.61 23.61 23.61 0 0 0 7.27-3.8 28.75 28.75 0 0 0 5.83-6.76 60.86 60.86 0 0 0 4.52-8.66 56.9 56.9 0 0 0 3.08-8.7c.66-2.48 1-5 1.77-7.49a1.43 1.43 0 0 1 .58-.92q5.3-3.28 10.66-6.41c1.16-.67 2.34-1.3 3.5-2 .13-.07.25-.15.37-.06s0 .19-.07.29a22.72 22.72 0 0 0-1 7.28 5.58 5.58 0 0 0 .89 2.59 2.67 2.67 0 0 0 1.92 1.29 2.53 2.53 0 0 0 1.54 0 15.24 15.24 0 0 0 5.24-2.15c3.82-2.21 7.37-4.82 11-7.37a4 4 0 0 1 1.34-.79c-.33 1.14-.69 2.19-.94 3.27-.72 3-1.5 6.06-2.07 9.14-.38 2.13-.81 4.25-1.07 6.39a1 1 0 0 0 0 .59 1.31 1.31 0 0 0 .85 1.21 1.08 1.08 0 0 0 .59 0 1.61 1.61 0 0 0 1.07-1.3c.36-1.77.57-3.56.94-5.32.67-3.14 1.47-6.26 2.19-9.4.56-2.46 1.38-4.85 2-7.28.84-3 1.61-6.07 2.54-9.07 1.42-4.62 3-9.19 4.41-13.8 1.37-4.09 3-8.06 4.39-12.11ZM87.91 41.47a34.1 34.1 0 0 1-6.34 8.37c-.18.16-.35.32-.54.46s-.31.33-.57.22-.27-.32-.27-.68c.36-3.62 1.52-6.91 4.36-9.34 1.37-1.17 2-1 3-.21a.84.84 0 0 1 .36 1.18ZM87.18 64a62.8 62.8 0 0 1-6.92 16.21 26.57 26.57 0 0 1-7 7.62 18.85 18.85 0 0 1-6.49 2.83 3.69 3.69 0 0 1-2.38-.21 2.65 2.65 0 0 1-1.5-2.53 13.09 13.09 0 0 1 2.41-8.21 44.91 44.91 0 0 1 5-6.34A83.17 83.17 0 0 1 85 60.75c.79-.54 1.64-1 2.47-1.49.2-.12.42-.21.72-.36a29.8 29.8 0 0 1-1.01 5.1ZM376.1 28.56a.71.71 0 0 0-.71.71v39.9a.71.71 0 1 0 1.42 0v-39.9a.71.71 0 0 0-.71-.71Z" />
</svg>